<?xml version="1.0" standalone="no"?><!DOCTYPE svg PUBLIC "-//W3C//DTD SVG 1.1//EN" "http://www.w3.org/Graphics/SVG/1.1/DTD/svg11.dtd"><svg t="1705590882108" class="icon" viewBox="0 0 1025 1024" version="1.1" xmlns="http://www.w3.org/2000/svg" p-id="9105" xmlns:xlink="http://www.w3.org/1999/xlink" width="200.1953125" height="200"><path d="M686.99153 678.391875m-336.883551 0a336.883551 336.883551 0 1 0 673.767102 0 336.883551 336.883551 0 1 0-673.767102 0Z" fill="#FFC64B" opacity=".5" p-id="9106"></path><path d="M703.390729 1.42493l-701.965724 701.965725c-1.899907 1.899907-1.899907 4.999756 0 6.899663L313.509766 1022.57507c1.899907 1.899907 4.999756 1.899907 6.899663 0l701.965725-701.965725c1.899907-1.899907 1.899907-4.999756 0-6.899663L710.290392 1.42493c-1.899907-1.899907-4.999756-1.899907-6.899663 0zM84.620943 703.49065L703.390729 84.720863c1.899907-1.899907 4.999756-1.899907 6.899663 0l228.888824 228.888824c1.899907 1.899907 1.899907 4.999756 0 6.899663L790.086496 469.702065c-1.899907 1.899907-4.999756 1.899907-6.899663 0l-97.095259-97.095259c-1.899907-1.899907-4.999756-1.899907-6.899663 0L644.493605 407.305112c-1.899907 1.899907-1.899907 4.999756 0 6.899663l97.095259 97.095259c1.899907 1.899907 1.899907 4.999756 0 6.899663l-87.395733 87.395733c-1.899907 1.899907-4.999756 1.899907-6.899663 0l-97.095259-97.095259c-1.899907-1.899907-4.999756-1.899907-6.899663 0L508.500245 543.198477c-1.899907 1.899907-1.899907 4.999756 0 6.899663l97.095259 97.095259c1.899907 1.899907 1.899907 4.999756 0 6.899663l-87.395732 87.395732c-1.899907 1.899907-4.999756 1.899907-6.899663 0l-97.095259-97.095259c-1.899907-1.899907-4.999756-1.899907-6.899663 0L372.506886 679.191836c-1.899907 1.899907-1.899907 4.999756 0 6.899663l97.095259 97.095259c1.899907 1.899907 1.899907 4.999756 0 6.899664L320.509425 939.279137c-1.899907 1.899907-4.999756 1.899907-6.899664 0l-228.988818-228.888824c-1.899907-1.899907-1.899907-4.999756 0-6.899663z" fill="#212121" p-id="9107"></path></svg>