<?xml version="1.0" standalone="no"?><!DOCTYPE svg PUBLIC "-//W3C//DTD SVG 1.1//EN" "http://www.w3.org/Graphics/SVG/1.1/DTD/svg11.dtd"><svg t="1705591027317" class="icon" viewBox="0 0 1024 1024" version="1.1" xmlns="http://www.w3.org/2000/svg" p-id="19245" xmlns:xlink="http://www.w3.org/1999/xlink" width="200" height="200"><path d="M510.464 0C228.864 0 0 228.864 0 510.464s228.864 510.464 510.464 510.464 510.464-228.864 510.464-510.464S792.32 0 510.464 0z" fill="#FAB40C" p-id="19246"></path><path d="M724.992 227.072l-97.536 87.04-11.264 98.304-133.632 114.944 38.912 42.24 131.072-120.576 103.168 2.816 97.536-92.672 33.536-30.976-125.44-8.448 8.448-129.024-44.8 36.352z m0 0" fill="#FFFFFF" p-id="19247"></path><path d="M527.104 431.872c-47.36 0-89.088 39.424-89.088 89.856 0 50.432 38.912 87.04 89.088 87.04 47.36 0 86.272-39.424 86.272-87.04h-86.272l16.64-87.04c-5.376-2.816-11.008-2.816-16.64-2.816z m0 0" fill="#FFFFFF" p-id="19248"></path><path d="M674.816 518.912c0 81.408-66.816 148.736-147.712 148.736s-147.712-67.328-147.712-148.736c0-81.408 66.816-148.736 147.712-148.736 11.264 0 19.456 0 30.72 2.816l30.72-148.736c-19.456-2.816-38.912-5.632-61.184-5.632-164.352 0-298.24 134.656-298.24 300.288C229.12 684.544 362.752 819.2 527.104 819.2c161.536 0 292.608-129.024 298.24-289.024v-8.448l-150.528-2.816z m0 0" fill="#FFF4DC" p-id="19249"></path></svg>